# xmcd
#
# Track frame offsets: 
#        150
#        15262
#        29795
#        42925
#        52410
#        61302
#        77070
#        85637
#        103645
#        116860
#        129090
#        137420
#        153840
#        170782
#
# Disc length: 2648 seconds
#
# Revision: 5
# Processed by: cddbd v1.5.2PL0 Copyright (c) Steve Scherf et al.
# Submitted via: ExactAudioCopy v1.0b3
#
DISCID=b30a560e
DTITLE=System Of A Down - Toxicity
DYEAR=2001
DGENRE=Crossover
TTITLE0=Prison Song
TTITLE1=Needles
TTITLE2=Deer Dance
TTITLE3=Jet Pilot
TTITLE4=X
TTITLE5=Chop Suey!
TTITLE6=Bounce
TTITLE7=Forest
TTITLE8=ATWA
TTITLE9=Science
TTITLE10=Shimmy
TTITLE11=Toxicity
TTITLE12=Psycho
TTITLE13=System Of A Down feat. Kirk Hammett - Aerials
EXTD=
EXTT0=
EXTT1=
EXTT2=
EXTT3=
EXTT4=
EXTT5=
EXTT6=
EXTT7=
EXTT8=
EXTT9=
EXTT10=
EXTT11=
EXTT12=
EXTT13=
PLAYORDER=
